<?xml version="1.0" encoding="UTF-8" standalone="no"?>
<!-- Created with Inkscape (http://www.inkscape.org/) -->

<svg
   xmlns:dc="http://purl.org/dc/elements/1.1/"
   xmlns:cc="http://creativecommons.org/ns#"
   xmlns:rdf="http://www.w3.org/1999/02/22-rdf-syntax-ns#"
   xmlns:svg="http://www.w3.org/2000/svg"
   xmlns="http://www.w3.org/2000/svg"
   xmlns:sodipodi="http://sodipodi.sourceforge.net/DTD/sodipodi-0.dtd"
   xmlns:inkscape="http://www.inkscape.org/namespaces/inkscape"
   width="825.3584"
   height="187.99933"
   id="svg6143"
   version="1.1"
   inkscape:version="0.92.2 (5c3e80d, 2017-08-06)"
   sodipodi:docname="logo_2017_horizontal_white.svg">
  <defs
     id="defs6145" />
  <sodipodi:namedview
     id="base"
     pagecolor="#ffffff"
     bordercolor="#666666"
     borderopacity="1.0"
     inkscape:pageopacity="0.0"
     inkscape:pageshadow="2"
     inkscape:zoom="0.8417988"
     inkscape:cx="188.4775"
     inkscape:cy="-62.046877"
     inkscape:document-units="px"
     inkscape:current-layer="layer1"
     showgrid="false"
     fit-margin-top="0"
     fit-margin-left="0"
     fit-margin-right="0"
     fit-margin-bottom="0"
     inkscape:window-width="1920"
     inkscape:window-height="1029"
     inkscape:window-x="1920"
     inkscape:window-y="27"
     inkscape:window-maximized="1">
    <inkscape:grid
       type="xygrid"
       id="grid4308"
       originx="-12.996489"
       originy="-69.090696" />
  </sodipodi:namedview>
  <metadata
     id="metadata6148">
    <rdf:RDF>
      <cc:Work
         rdf:about="">
        <dc:format>image/svg+xml</dc:format>
        <dc:type
           rdf:resource="http://purl.org/dc/dcmitype/StillImage" />
        <dc:title />
      </cc:Work>
    </rdf:RDF>
  </metadata>
  <g
     inkscape:label="Layer 1"
     inkscape:groupmode="layer"
     id="layer1"
     transform="translate(60.62349,-428.57089)">
    <g
       id="g4899">
      <path
         id="rect4299-1-4-6-6-0-5-4-0-5-4-4-8-7-3-6-0-5-6-9-2-1-6-7-6-0-4-1-4-8"
         transform="translate(-73.619979,427.20065)"
         d="m 102.69336,107.79297 a 20.367931,20.367931 0 0 1 -2.41797,1.8418 l -0.0879,0.18359 14.08594,48.37305 a 20.367931,20.367931 0 0 1 9.53125,-2.37891 20.367931,20.367931 0 0 1 6.04297,0.93945 l -27.1543,-48.95898 z"
         style="color:#000000;font-style:normal;font-variant:normal;font-weight:normal;font-stretch:normal;font-size:161.28417969px;line-height:125%;font-family:Roboto;-inkscape-font-specification:Roboto;letter-spacing:0px;word-spacing:0px;clip-rule:nonzero;display:inline;overflow:visible;visibility:visible;opacity:1;isolation:auto;mix-blend-mode:normal;color-interpolation:sRGB;color-interpolation-filters:linearRGB;solid-color:#000000;solid-opacity:1;fill:#fffff2;fill-opacity:1;fill-rule:nonzero;stroke:none;stroke-width:2.82826948;stroke-linecap:round;stroke-linejoin:round;stroke-miterlimit:4;stroke-dasharray:none;stroke-dashoffset:0;stroke-opacity:1;color-rendering:auto;image-rendering:auto;shape-rendering:auto;text-rendering:auto;enable-background:accumulate"
         inkscape:connector-curvature="0" />
      <path
         id="rect4299-7-8-1-3-0-9-6-7-16-6-6-5-6-1-5-4-4-5-4-3-5-7-0-5-7-4-4-3"
         transform="translate(-73.619979,427.20065)"
         d="m 174.03516,24.673828 a 20.367931,20.367931 0 0 1 -2.54883,3.195313 c 1.04799,0.632221 2.00097,1.280922 2.61133,2.023437 19.58783,14.4307 39.36964,30.155976 51.92968,51.035156 7.72248,12.62084 9.44685,29.543326 -0.33203,41.683596 -15.92838,19.69486 -41.89196,27.79193 -65.77734,34.24609 -5.49217,1.7341 -15.01454,3.00071 -22.25977,4.68555 a 20.367931,20.367931 0 0 1 6.56055,14.94922 20.367931,20.367931 0 0 1 -0.97461,6.15039 c 4.86705,-1.00178 10.04965,-2.65365 12.08984,-2.70899 27.53968,-7.45471 56.56226,-17.77448 75.32227,-39.82031 12.22922,-14.03568 13.35528,-34.61213 5.20313,-50.802733 C 222.65927,62.166168 198.44995,42.325428 174.03516,24.673828 Z"
         style="color:#000000;font-style:normal;font-variant:normal;font-weight:normal;font-stretch:normal;font-size:161.28417969px;line-height:125%;font-family:Roboto;-inkscape-font-specification:Roboto;letter-spacing:0px;word-spacing:0px;clip-rule:nonzero;display:inline;overflow:visible;visibility:visible;opacity:1;isolation:auto;mix-blend-mode:normal;color-interpolation:sRGB;color-interpolation-filters:linearRGB;solid-color:#000000;solid-opacity:1;fill:#ffffff;fill-opacity:1;fill-rule:nonzero;stroke:none;stroke-width:2.82826948;stroke-linecap:round;stroke-linejoin:round;stroke-miterlimit:4;stroke-dasharray:none;stroke-dashoffset:0;stroke-opacity:1;color-rendering:auto;image-rendering:auto;shape-rendering:auto;text-rendering:auto;enable-background:accumulate"
         inkscape:connector-curvature="0" />
      <circle
         inkscape:transform-center-y="3.4978006"
         inkscape:transform-center-x="0.87445015"
         style="color:#000000;clip-rule:nonzero;display:inline;overflow:visible;visibility:visible;opacity:1;isolation:auto;mix-blend-mode:normal;color-interpolation:sRGB;color-interpolation-filters:linearRGB;solid-color:#000000;solid-opacity:1;fill:#ffffff;fill-opacity:1;fill-rule:nonzero;stroke:none;stroke-width:2.82826948;stroke-linecap:round;stroke-linejoin:round;stroke-miterlimit:4;stroke-dasharray:none;stroke-dashoffset:0;stroke-opacity:1;color-rendering:auto;image-rendering:auto;shape-rendering:auto;text-rendering:auto;enable-background:accumulate"
         r="13.22885"
         cy="441.79974"
         cx="21.181726"
         id="path3360-3" />
      <path
         id="rect4299-7-8-1-3-0-9-6-0"
         transform="translate(-73.619979,427.20065)"
         d="M 76.097656,22.650391 C 66.081706,30.164107 56.795976,38.769765 47.744141,47.304688 30.873924,64.717607 14.122594,85.664832 13.03125,110.40234 c -0.148066,3.64279 0.180902,7.18183 0.910156,10.60352 a 20.367931,20.367931 0 0 1 10.601563,-4.66797 c -3.758807,-9.03593 -4.090034,-19.336502 -0.351563,-28.499999 8.57478,-22.62964 27.955673,-39.543358 46.123047,-55.179688 2.308759,-2.300025 5.204477,-4.189914 7.984375,-6.152344 A 20.367931,20.367931 0 0 1 76.097656,22.650391 Z M 47.183594,140.08398 a 20.367931,20.367931 0 0 1 -10.582032,14.45704 c 4.100964,3.30222 8.489666,6.23949 12.966797,8.75586 17.12348,9.91845 36.135767,16.64853 55.580081,20.99218 0.007,-0.002 0.011,-0.006 0.0176,-0.008 a 20.367931,20.367931 0 0 1 -1.43555,-7.45898 20.367931,20.367931 0 0 1 6.05859,-14.46875 C 88.096888,158.0854 65.712514,151.99609 47.183594,140.08398 Z"
         style="color:#000000;font-style:normal;font-variant:normal;font-weight:normal;font-stretch:normal;font-size:161.28417969px;line-height:125%;font-family:Roboto;-inkscape-font-specification:Roboto;letter-spacing:0px;word-spacing:0px;clip-rule:nonzero;display:inline;overflow:visible;visibility:visible;opacity:1;isolation:auto;mix-blend-mode:normal;color-interpolation:sRGB;color-interpolation-filters:linearRGB;solid-color:#000000;solid-opacity:1;fill:#fffff2;fill-opacity:1;fill-rule:nonzero;stroke:none;stroke-width:2.82826948;stroke-linecap:round;stroke-linejoin:round;stroke-miterlimit:4;stroke-dasharray:none;stroke-dashoffset:0;stroke-opacity:1;color-rendering:auto;image-rendering:auto;shape-rendering:auto;text-rendering:auto;enable-background:accumulate"
         inkscape:connector-curvature="0" />
      <circle
         inkscape:transform-center-y="3.4978006"
         inkscape:transform-center-x="0.87445015"
         style="color:#000000;clip-rule:nonzero;display:inline;overflow:visible;visibility:visible;opacity:1;isolation:auto;mix-blend-mode:normal;color-interpolation:sRGB;color-interpolation-filters:linearRGB;solid-color:#000000;solid-opacity:1;fill:#ffffff;fill-opacity:1;fill-rule:nonzero;stroke:none;stroke-width:2.82826948;stroke-linecap:round;stroke-linejoin:round;stroke-miterlimit:4;stroke-dasharray:none;stroke-dashoffset:0;stroke-opacity:1;color-rendering:auto;image-rendering:auto;shape-rendering:auto;text-rendering:auto;enable-background:accumulate"
         r="13.22885"
         cy="519.76947"
         cx="15.570672"
         id="path3360-3-3" />
      <circle
         inkscape:transform-center-y="3.4978006"
         inkscape:transform-center-x="0.87445015"
         style="color:#000000;clip-rule:nonzero;display:inline;overflow:visible;visibility:visible;opacity:1;isolation:auto;mix-blend-mode:normal;color-interpolation:sRGB;color-interpolation-filters:linearRGB;solid-color:#000000;solid-opacity:1;fill:#ffffff;fill-opacity:1;fill-rule:nonzero;stroke:none;stroke-width:2.82826948;stroke-linecap:round;stroke-linejoin:round;stroke-miterlimit:4;stroke-dasharray:none;stroke-dashoffset:0;stroke-opacity:1;color-rendering:auto;image-rendering:auto;shape-rendering:auto;text-rendering:auto;enable-background:accumulate"
         r="13.22885"
         cy="563.67529"
         cx="-46.638233"
         id="path3360-3-6" />
      <circle
         inkscape:transform-center-y="3.4978006"
         inkscape:transform-center-x="0.87445015"
         style="color:#000000;clip-rule:nonzero;display:inline;overflow:visible;visibility:visible;opacity:1;isolation:auto;mix-blend-mode:normal;color-interpolation:sRGB;color-interpolation-filters:linearRGB;solid-color:#000000;solid-opacity:1;fill:#ffffff;fill-opacity:1;fill-rule:nonzero;stroke:none;stroke-width:2.82826948;stroke-linecap:round;stroke-linejoin:round;stroke-miterlimit:4;stroke-dasharray:none;stroke-dashoffset:0;stroke-opacity:1;color-rendering:auto;image-rendering:auto;shape-rendering:auto;text-rendering:auto;enable-background:accumulate"
         r="13.22885"
         cy="603.34137"
         cx="50.69928"
         id="path3360-3-6-7" />
      <path
         id="rect4299-1-4-6-6-0-5-4-0-5-4-4-8-7-3-6-0-5-6-9-2-1-6-7-6-0-4-1-4-8-9"
         transform="translate(-73.619979,427.20065)"
         d="m 70.623047,100.9043 -33.263672,18.63867 c 3.436851,1.98852 6.217531,4.93824 8,8.48633 l 27.330078,-23.55078 a 20.367931,20.367931 0 0 1 -2.066406,-3.57422 z"
         style="color:#000000;font-style:normal;font-variant:normal;font-weight:normal;font-stretch:normal;font-size:161.28417969px;line-height:125%;font-family:Roboto;-inkscape-font-specification:Roboto;letter-spacing:0px;word-spacing:0px;clip-rule:nonzero;display:inline;overflow:visible;visibility:visible;opacity:1;isolation:auto;mix-blend-mode:normal;color-interpolation:sRGB;color-interpolation-filters:linearRGB;solid-color:#000000;solid-opacity:1;fill:#fffff2;fill-opacity:1;fill-rule:nonzero;stroke:none;stroke-width:2.82826948;stroke-linecap:round;stroke-linejoin:round;stroke-miterlimit:4;stroke-dasharray:none;stroke-dashoffset:0;stroke-opacity:1;color-rendering:auto;image-rendering:auto;shape-rendering:auto;text-rendering:auto;enable-background:accumulate"
         inkscape:connector-curvature="0" />
      <path
         id="rect4299-1-4-6-6-0-5-4-0-5-4-4-8-7-3-6-0-5-6-9-2-1-6-7-6-0-4-1-4-8-1"
         transform="translate(-73.619979,427.20065)"
         d="M 88.144531,33.824219 78.46875,75.279297 a 20.367931,20.367931 0 0 1 10.722656,-3.080078 20.367931,20.367931 0 0 1 4.089844,0.4375 l 0.04883,-37.72461 a 20.367931,20.367931 0 0 1 -5.185547,-1.08789 z"
         style="color:#000000;font-style:normal;font-variant:normal;font-weight:normal;font-stretch:normal;font-size:161.28417969px;line-height:125%;font-family:Roboto;-inkscape-font-specification:Roboto;letter-spacing:0px;word-spacing:0px;clip-rule:nonzero;display:inline;overflow:visible;visibility:visible;opacity:1;isolation:auto;mix-blend-mode:normal;color-interpolation:sRGB;color-interpolation-filters:linearRGB;solid-color:#000000;solid-opacity:1;fill:#fffff2;fill-opacity:1;fill-rule:nonzero;stroke:none;stroke-width:2.82826948;stroke-linecap:round;stroke-linejoin:round;stroke-miterlimit:4;stroke-dasharray:none;stroke-dashoffset:0;stroke-opacity:1;color-rendering:auto;image-rendering:auto;shape-rendering:auto;text-rendering:auto;enable-background:accumulate"
         inkscape:connector-curvature="0" />
      <path
         id="rect4299-1-4-6-6-0-5-4-0-5-4-4-8-7-3-6-0-5-6-9-2-1-6-7-6-0-4-1-4-8-2"
         transform="translate(-73.619979,427.20065)"
         d="M 141.68555,27.128906 98.085938,74.261719 c 4.440512,2.153304 7.948182,5.845598 9.871092,10.390625 l 36.63086,-54.824219 a 20.367931,20.367931 0 0 1 -2.90234,-2.699219 z"
         style="color:#000000;font-style:normal;font-variant:normal;font-weight:normal;font-stretch:normal;font-size:161.28417969px;line-height:125%;font-family:Roboto;-inkscape-font-specification:Roboto;letter-spacing:0px;word-spacing:0px;clip-rule:nonzero;display:inline;overflow:visible;visibility:visible;opacity:1;isolation:auto;mix-blend-mode:normal;color-interpolation:sRGB;color-interpolation-filters:linearRGB;solid-color:#000000;solid-opacity:1;fill:#fffff2;fill-opacity:1;fill-rule:nonzero;stroke:none;stroke-width:2.82826948;stroke-linecap:round;stroke-linejoin:round;stroke-miterlimit:4;stroke-dasharray:none;stroke-dashoffset:0;stroke-opacity:1;color-rendering:auto;image-rendering:auto;shape-rendering:auto;text-rendering:auto;enable-background:accumulate"
         inkscape:connector-curvature="0" />
      <circle
         inkscape:transform-center-y="3.4978006"
         inkscape:transform-center-x="0.87445015"
         style="color:#000000;clip-rule:nonzero;display:inline;overflow:visible;visibility:visible;opacity:1;isolation:auto;mix-blend-mode:normal;color-interpolation:sRGB;color-interpolation-filters:linearRGB;solid-color:#000000;solid-opacity:1;fill:#ffffff;fill-opacity:1;fill-rule:nonzero;stroke:none;stroke-width:2.82826948;stroke-linecap:round;stroke-linejoin:round;stroke-miterlimit:4;stroke-dasharray:none;stroke-dashoffset:0;stroke-opacity:1;color-rendering:auto;image-rendering:auto;shape-rendering:auto;text-rendering:auto;enable-background:accumulate"
         r="13.22885"
         cy="442.6907"
         cx="83.747734"
         id="path3360-3-5" />
    </g>
    <path
       style="fill:#ffffff;fill-opacity:1;stroke-width:2.37186694"
       d="m 739.83358,466.19054 v 10.25349 10.25348 h 12.45067 12.45066 v -10.25348 -10.25349 h -12.45066 z m -473.30816,1.76517 c -16.86739,-0.12262 -33.16074,5.44714 -43.34558,15.84656 -13.48039,13.7644 -18.32118,35.10529 -12.79969,56.41993 4.81729,18.59613 17.75702,31.13557 37.65524,36.49369 13.67059,3.68116 29.53283,2.57369 44.67304,-3.11839 l 6.22533,-2.3402 v -10.78564 c 0,-5.93277 -0.24956,-10.78846 -0.55502,-10.78846 -0.30546,0 -4.33417,1.73104 -8.95178,3.84506 -10.00268,4.57938 -24.24056,6.12072 -32.21951,3.48745 -8.66282,-2.859 -16.49671,-10.86984 -19.05362,-19.47991 -6.40139,-21.55579 1.81841,-42.22632 19.05362,-47.91446 7.97895,-2.63327 22.21683,-1.09194 32.21951,3.48745 4.61761,2.11402 8.64632,3.84221 8.95178,3.84221 0.30546,0 0.55502,-4.84271 0.55502,-10.76275 v -10.7627 l -6.22533,-2.46897 c -8.35651,-3.31193 -17.34771,-4.93659 -26.18301,-5.00087 z m 87.48077,26.3804 c -5.72401,-0.0588 -11.62026,0.27884 -16.91368,1.05283 -16.94815,2.47815 -16.187,1.87211 -16.187,12.86263 0,7.96347 0.36836,9.37974 2.25153,8.6571 10.12927,-3.88697 19.69872,-5.55878 28.86368,-5.04093 9.01782,0.50955 10.67269,1.0681 13.73805,4.63181 1.91695,2.22858 3.48459,5.33418 3.48459,6.90052 0,2.60466 -1.09838,2.84659 -12.87407,2.84659 -14.25438,0 -27.81958,2.9271 -34.01044,7.33536 -4.69425,3.3426 -8.77726,12.5023 -8.77726,19.69733 0,10.32996 5.34535,18.30164 15.38023,22.93301 11.15561,5.14866 25.17674,2.89266 34.52825,-5.55586 l 5.75329,-5.20112 v 5.29837 5.29555 h 13.18305 13.18306 v -26.83243 c 0,-37.058 -2.83653,-45.16483 -18.02085,-51.50773 -4.98334,-2.08169 -14.04244,-3.27495 -23.58243,-3.37303 z m 94.22104,0.005 c -5.21589,0.002 -10.01716,0.35103 -13.5235,1.08143 -14.824,3.08795 -22.71718,13.29104 -21.13637,27.31593 1.46282,12.97812 8.70569,18.15878 30.66032,21.9374 7.50041,1.29091 14.49267,3.05556 15.54045,3.91944 2.99598,2.47023 1.47155,8.83755 -2.63776,11.02021 -5.16715,2.74456 -25.05569,1.42723 -34.7886,-2.30588 l -7.69012,-2.9496 v 9.97884 9.97885 l 10.61968,1.75371 c 5.84083,0.96435 11.27884,2.00304 12.08447,2.30878 0.80563,0.30578 7.40694,0.33766 14.66785,0.0688 15.58741,-0.57753 24.92555,-4.04802 29.97371,-11.1375 4.52258,-6.35139 5.45898,-15.97355 2.34881,-24.11743 -3.6638,-9.59351 -9.55585,-12.56786 -32.13656,-16.22134 -7.13833,-1.15496 -13.92726,-2.88663 -15.08554,-3.8479 -3.05705,-2.53714 -1.80626,-7.50051 2.4289,-9.63552 6.73345,-3.39445 17.29523,-2.45211 37.71818,3.37013 3.17609,0.90544 3.29576,0.59541 3.29576,-8.577 v -9.51823 l -6.86903,-1.73085 C 466.7666,495.2878 456.9204,494.33557 448.22723,494.341 Z M 739.83358,496.95 v 40.28156 40.28154 h 12.45067 12.45066 V 537.23156 496.95 h -12.45066 z m -370.59022,43.63453 v 3.89083 c 0,5.71053 -3.83949,12.17088 -8.74007,14.70506 -6.42039,3.32011 -12.78101,2.80518 -16.95943,-1.37324 -4.31637,-4.31638 -4.55627,-8.07839 -0.80965,-12.70527 2.42562,-2.99552 4.32072,-3.51055 14.64784,-3.97951 z"
       id="path4654-9"
       inkscape:connector-curvature="0" />
    <path
       style="color:#000000;clip-rule:nonzero;display:inline;overflow:visible;visibility:visible;opacity:1;isolation:auto;mix-blend-mode:normal;color-interpolation:sRGB;color-interpolation-filters:linearRGB;solid-color:#000000;solid-opacity:1;fill:#ffffff;fill-opacity:1;fill-rule:nonzero;stroke:none;stroke-width:6.70827866;stroke-linecap:round;stroke-linejoin:round;stroke-miterlimit:4;stroke-dasharray:none;stroke-dashoffset:0;stroke-opacity:1;color-rendering:auto;image-rendering:auto;shape-rendering:auto;text-rendering:auto;enable-background:accumulate"
       d="m 624.34326,470.08728 v 53.72208 53.71922 l 30.39426,-0.5636 c 27.21691,-0.50684 31.26092,-0.90864 38.66798,-3.83934 11.0534,-4.37337 20.66681,-13.11346 25.70238,-23.36787 3.81064,-7.75996 4.10826,-9.6529 4.10826,-25.94841 0,-16.29549 -0.29762,-18.18843 -4.10826,-25.94839 -5.03557,-10.25441 -14.64898,-18.99453 -25.70238,-23.3679 -7.40706,-2.93067 -11.45107,-3.33247 -38.66798,-3.83931 z m -51.99981,0.24032 -17.33423,0.37478 -17.33709,0.37478 -18.89055,51.13294 c -10.39106,28.12316 -19.27789,52.34701 -19.74883,53.8308 -0.7928,2.49789 0.22826,2.69784 13.80387,2.69784 h 14.66213 l 3.30435,-10.25347 3.30149,-10.25348 h 20.86744 20.86458 l 3.30435,10.25348 3.30149,10.25347 h 14.53053 c 14.33284,0 14.5167,-0.0441 13.6694,-3.28431 -0.47243,-1.80658 -9.28103,-26.1994 -19.57716,-54.20557 z m 79.8307,20.23518 9.15491,0.97842 c 24.52527,2.6174 33.3238,11.13715 33.3238,32.26816 0,16.24605 -6.09963,25.76817 -19.04217,29.7248 -2.8197,0.86201 -9.24644,2.00599 -14.28163,2.54336 l -9.15491,0.97557 v -33.24373 z m -96.56413,10.17623 c 0.54366,0.60374 3.43292,8.34928 6.41986,17.21122 2.98693,8.86193 5.75933,16.93655 6.16239,17.9436 0.55403,1.3842 -2.51238,1.83099 -12.57082,1.83099 -7.3178,0 -13.31577,-0.49437 -13.32895,-1.09861 -0.0675,-3.04815 12.46861,-36.82989 13.31752,-35.8872 z"
       id="path4654-2"
       inkscape:connector-curvature="0" />
  </g>
</svg>
